<mxfile host="Electron" modified="2024-05-31T14:40:50.416Z" agent="Mozilla/5.0 (Windows NT 10.0; Win64; x64) AppleWebKit/537.36 (KHTML, like Gecko) draw.io/21.6.5 Chrome/114.0.5735.243 Electron/25.3.1 Safari/537.36" etag="C_nzfGKeY1FZP6aCwmod" version="21.6.5" type="device">
  <diagram name="Page-1" id="voCowqY7MoZV6lukrbvn">
    <mxGraphModel dx="780" dy="462" grid="1" gridSize="10" guides="1" tooltips="1" connect="1" arrows="1" fold="1" page="1" pageScale="1" pageWidth="850" pageHeight="1100" math="0" shadow="0">
      <root>
        <mxCell id="0" />
        <mxCell id="1" parent="0" />
        <mxCell id="c-zgEDqQHUeH1MJ0nHGI-17" style="edgeStyle=orthogonalEdgeStyle;rounded=0;orthogonalLoop=1;jettySize=auto;html=1;exitX=1;exitY=0.5;exitDx=0;exitDy=0;exitPerimeter=0;entryX=0;entryY=0.5;entryDx=0;entryDy=0;" edge="1" parent="1" source="c-zgEDqQHUeH1MJ0nHGI-2" target="c-zgEDqQHUeH1MJ0nHGI-4">
          <mxGeometry relative="1" as="geometry" />
        </mxCell>
        <mxCell id="c-zgEDqQHUeH1MJ0nHGI-18" value="Consume&lt;br&gt;Message" style="edgeLabel;html=1;align=center;verticalAlign=middle;resizable=0;points=[];" vertex="1" connectable="0" parent="c-zgEDqQHUeH1MJ0nHGI-17">
          <mxGeometry x="-0.2356" y="-1" relative="1" as="geometry">
            <mxPoint as="offset" />
          </mxGeometry>
        </mxCell>
        <mxCell id="c-zgEDqQHUeH1MJ0nHGI-2" value="RabbitMQ" style="strokeWidth=2;html=1;shape=mxgraph.flowchart.direct_data;whiteSpace=wrap;" vertex="1" parent="1">
          <mxGeometry x="450" y="200" width="100" height="60" as="geometry" />
        </mxCell>
        <mxCell id="c-zgEDqQHUeH1MJ0nHGI-10" style="edgeStyle=orthogonalEdgeStyle;rounded=0;orthogonalLoop=1;jettySize=auto;html=1;exitX=1;exitY=0.5;exitDx=0;exitDy=0;entryX=0;entryY=0.5;entryDx=0;entryDy=0;entryPerimeter=0;" edge="1" parent="1" source="c-zgEDqQHUeH1MJ0nHGI-3" target="c-zgEDqQHUeH1MJ0nHGI-2">
          <mxGeometry relative="1" as="geometry" />
        </mxCell>
        <mxCell id="c-zgEDqQHUeH1MJ0nHGI-11" value="Send &lt;br&gt;Message" style="edgeLabel;html=1;align=center;verticalAlign=middle;resizable=0;points=[];" vertex="1" connectable="0" parent="c-zgEDqQHUeH1MJ0nHGI-10">
          <mxGeometry x="-0.1911" y="-2" relative="1" as="geometry">
            <mxPoint as="offset" />
          </mxGeometry>
        </mxCell>
        <mxCell id="c-zgEDqQHUeH1MJ0nHGI-3" value="AppA" style="rounded=1;whiteSpace=wrap;html=1;absoluteArcSize=1;arcSize=14;strokeWidth=2;" vertex="1" parent="1">
          <mxGeometry x="230" y="180" width="100" height="100" as="geometry" />
        </mxCell>
        <mxCell id="c-zgEDqQHUeH1MJ0nHGI-4" value="AppB" style="rounded=1;whiteSpace=wrap;html=1;absoluteArcSize=1;arcSize=14;strokeWidth=2;" vertex="1" parent="1">
          <mxGeometry x="640" y="180" width="100" height="100" as="geometry" />
        </mxCell>
        <mxCell id="c-zgEDqQHUeH1MJ0nHGI-8" style="edgeStyle=orthogonalEdgeStyle;rounded=0;orthogonalLoop=1;jettySize=auto;html=1;exitX=0.5;exitY=0.5;exitDx=0;exitDy=0;exitPerimeter=0;entryX=0;entryY=0.5;entryDx=0;entryDy=0;" edge="1" parent="1" source="c-zgEDqQHUeH1MJ0nHGI-5" target="c-zgEDqQHUeH1MJ0nHGI-3">
          <mxGeometry relative="1" as="geometry" />
        </mxCell>
        <mxCell id="c-zgEDqQHUeH1MJ0nHGI-9" value="REST" style="edgeLabel;html=1;align=center;verticalAlign=middle;resizable=0;points=[];" vertex="1" connectable="0" parent="c-zgEDqQHUeH1MJ0nHGI-8">
          <mxGeometry x="-0.1255" y="-2" relative="1" as="geometry">
            <mxPoint as="offset" />
          </mxGeometry>
        </mxCell>
        <mxCell id="c-zgEDqQHUeH1MJ0nHGI-5" value="User" style="shape=umlActor;verticalLabelPosition=bottom;verticalAlign=top;html=1;outlineConnect=0;" vertex="1" parent="1">
          <mxGeometry x="120" y="200" width="30" height="60" as="geometry" />
        </mxCell>
      </root>
    </mxGraphModel>
  </diagram>
</mxfile>
